<?xml version="1.0" encoding="utf-8"?>
<!-- Generator: Adobe Illustrator 16.0.0, SVG Export Plug-In . SVG Version: 6.00 Build 0)  -->
<!DOCTYPE svg PUBLIC "-//W3C//DTD SVG 1.1//EN" "http://www.w3.org/Graphics/SVG/1.1/DTD/svg11.dtd">
<svg version="1.1" xmlns="http://www.w3.org/2000/svg" xmlns:xlink="http://www.w3.org/1999/xlink" x="0px" y="0px"
	 width="1400px" height="20px" viewBox="0 -0.166 140.002 2" enable-background="new 0 -0.166 140.002 2" xml:space="preserve">
<path fill="#ffffff" d="M134.16,1.668c-1.517,0-2.287-0.176-3.032-0.347C130.405,1.156,129.724,1,128.317,1
	c-1.401,0-2.084,0.156-2.807,0.321c-0.744,0.171-1.515,0.347-3.031,0.347c-1.515,0-2.283-0.176-3.026-0.347
	C118.731,1.156,118.05,1,116.647,1c-1.401,0-2.084,0.156-2.807,0.321c-0.744,0.171-1.514,0.347-3.029,0.347
	c-1.515,0-2.285-0.176-3.028-0.347C107.062,1.156,106.38,1,104.979,1c-1.402,0-2.086,0.156-2.808,0.321
	c-0.744,0.171-1.513,0.347-3.026,0.347c-1.517,0-2.285-0.176-3.029-0.347C95.394,1.156,94.712,1,93.312,1
	c-1.401,0-2.084,0.156-2.806,0.321c-0.743,0.171-1.513,0.347-3.026,0.347c-1.515,0-2.282-0.176-3.025-0.347
	C83.731,1.156,83.05,1,81.647,1c-1.401,0-2.082,0.156-2.805,0.321c-0.742,0.171-1.513,0.347-3.029,0.347
	c-1.515,0-2.283-0.176-3.026-0.347C72.065,1.156,71.384,1,69.982,1s-2.084,0.156-2.805,0.321c-0.744,0.171-1.514,0.347-3.029,0.347
	s-2.285-0.176-3.029-0.347C60.398,1.156,59.717,1,58.315,1c-1.401,0-2.083,0.156-2.804,0.321c-0.744,0.171-1.514,0.347-3.029,0.347
	s-2.284-0.176-3.028-0.347C48.733,1.156,48.051,1,46.65,1s-2.083,0.156-2.804,0.321c-0.744,0.171-1.514,0.347-3.029,0.347
	c-1.514,0-2.283-0.176-3.027-0.347C37.069,1.156,36.387,1,34.986,1c-1.401,0-2.083,0.156-2.804,0.321
	c-0.744,0.171-1.513,0.347-3.028,0.347c-1.514,0-2.283-0.176-3.026-0.347C25.406,1.156,24.725,1,23.323,1
	c-1.401,0-2.083,0.156-2.804,0.321c-0.744,0.171-1.513,0.347-3.028,0.347c-1.514,0-2.282-0.176-3.026-0.347
	C13.744,1.156,13.063,1,11.662,1c-1.401,0-2.083,0.156-2.804,0.321C8.114,1.492,7.345,1.668,5.83,1.668
	c-1.514,0-2.283-0.176-3.027-0.347C2.082,1.156,1.401,1,0,1V0c1.514,0,2.283,0.176,3.027,0.347C3.748,0.512,4.429,0.668,5.83,0.668
	s2.083-0.156,2.804-0.321C9.378,0.176,10.147,0,11.662,0c1.514,0,2.283,0.176,3.027,0.347c0.721,0.165,1.402,0.321,2.802,0.321
	c1.401,0,2.083-0.156,2.804-0.321C21.04,0.176,21.809,0,23.323,0c1.514,0,2.284,0.176,3.028,0.347
	c0.721,0.165,1.402,0.321,2.803,0.321c1.401,0,2.083-0.156,2.804-0.321C32.702,0.176,33.471,0,34.986,0
	c1.515,0,2.284,0.176,3.028,0.347c0.721,0.165,1.402,0.321,2.803,0.321c1.402,0,2.084-0.156,2.806-0.321
	C44.366,0.176,45.135,0,46.65,0s2.284,0.176,3.028,0.347c0.721,0.165,1.403,0.321,2.804,0.321c1.402,0,2.084-0.156,2.806-0.321
	C56.031,0.176,56.8,0,58.315,0s2.285,0.176,3.029,0.347c0.722,0.165,1.403,0.321,2.805,0.321s2.084-0.156,2.806-0.321
	C67.698,0.176,68.467,0,69.982,0s2.283,0.176,3.027,0.347c0.723,0.165,1.403,0.321,2.805,0.321c1.402,0,2.086-0.156,2.808-0.321
	C79.365,0.176,80.134,0,81.647,0c1.515,0,2.285,0.176,3.027,0.347c0.723,0.165,1.402,0.321,2.803,0.321
	c1.401,0,2.084-0.156,2.806-0.321C91.026,0.176,91.796,0,93.312,0c1.515,0,2.282,0.176,3.026,0.347
	c0.722,0.165,1.404,0.321,2.808,0.321c1.4,0,2.082-0.156,2.805-0.321C102.692,0.176,103.463,0,104.979,0
	c1.515,0,2.282,0.176,3.026,0.347c0.722,0.165,1.404,0.321,2.808,0.321c1.402,0,2.084-0.156,2.807-0.321
	C114.362,0.176,115.133,0,116.647,0c1.516,0,2.285,0.176,3.027,0.347c0.723,0.165,1.403,0.321,2.805,0.321
	c1.403,0,2.086-0.156,2.81-0.321C126.033,0.176,126.803,0,128.317,0c1.518,0,2.287,0.176,3.033,0.347
	c0.723,0.165,1.404,0.321,2.81,0.321s2.087-0.156,2.81-0.321C137.715,0.176,138.485,0,140.002,0v1c-1.403,0-2.087,0.156-2.81,0.321
	C136.447,1.492,135.677,1.668,134.16,1.668z"/>
</svg>
